<mxfile host="app.diagrams.net" agent="Mozilla/5.0 (Windows NT 10.0; Win64; x64) AppleWebKit/537.36 (KHTML, like Gecko) Chrome/136.0.0.0 Safari/537.36" version="27.0.5">
  <diagram name="第 1 页" id="T6tYLNbp8Z9nCoGPKd5a">
    <mxGraphModel dx="1426" dy="777" grid="1" gridSize="10" guides="1" tooltips="1" connect="1" arrows="1" fold="1" page="1" pageScale="1" pageWidth="827" pageHeight="1169" math="0" shadow="0">
      <root>
        <mxCell id="0" />
        <mxCell id="1" parent="0" />
        <mxCell id="TACAZottXMF5NRmoX5qq-3" value="" style="edgeStyle=orthogonalEdgeStyle;rounded=0;orthogonalLoop=1;jettySize=auto;html=1;" edge="1" parent="1" source="TACAZottXMF5NRmoX5qq-1" target="TACAZottXMF5NRmoX5qq-2">
          <mxGeometry relative="1" as="geometry" />
        </mxCell>
        <mxCell id="TACAZottXMF5NRmoX5qq-1" value="岗位+地区输入" style="rounded=0;whiteSpace=wrap;html=1;" vertex="1" parent="1">
          <mxGeometry x="380" y="90" width="120" height="60" as="geometry" />
        </mxCell>
        <mxCell id="TACAZottXMF5NRmoX5qq-5" value="" style="edgeStyle=orthogonalEdgeStyle;rounded=0;orthogonalLoop=1;jettySize=auto;html=1;" edge="1" parent="1" source="TACAZottXMF5NRmoX5qq-2" target="TACAZottXMF5NRmoX5qq-4">
          <mxGeometry relative="1" as="geometry" />
        </mxCell>
        <mxCell id="TACAZottXMF5NRmoX5qq-2" value="AI拆分面试搜索岗位" style="whiteSpace=wrap;html=1;rounded=0;" vertex="1" parent="1">
          <mxGeometry x="380" y="170" width="120" height="60" as="geometry" />
        </mxCell>
        <mxCell id="TACAZottXMF5NRmoX5qq-7" value="" style="edgeStyle=orthogonalEdgeStyle;rounded=0;orthogonalLoop=1;jettySize=auto;html=1;" edge="1" parent="1" source="TACAZottXMF5NRmoX5qq-4" target="TACAZottXMF5NRmoX5qq-6">
          <mxGeometry relative="1" as="geometry" />
        </mxCell>
        <mxCell id="TACAZottXMF5NRmoX5qq-14" value="" style="edgeStyle=orthogonalEdgeStyle;rounded=0;orthogonalLoop=1;jettySize=auto;html=1;" edge="1" parent="1" source="TACAZottXMF5NRmoX5qq-4" target="TACAZottXMF5NRmoX5qq-13">
          <mxGeometry relative="1" as="geometry" />
        </mxCell>
        <mxCell id="TACAZottXMF5NRmoX5qq-4" value="根据岗位关键词搜索相关地区50个岗位" style="whiteSpace=wrap;html=1;rounded=0;" vertex="1" parent="1">
          <mxGeometry x="380" y="250" width="120" height="60" as="geometry" />
        </mxCell>
        <mxCell id="TACAZottXMF5NRmoX5qq-12" style="edgeStyle=orthogonalEdgeStyle;rounded=0;orthogonalLoop=1;jettySize=auto;html=1;exitX=0.5;exitY=1;exitDx=0;exitDy=0;entryX=0.5;entryY=0;entryDx=0;entryDy=0;" edge="1" parent="1" source="TACAZottXMF5NRmoX5qq-6" target="TACAZottXMF5NRmoX5qq-10">
          <mxGeometry relative="1" as="geometry" />
        </mxCell>
        <mxCell id="TACAZottXMF5NRmoX5qq-6" value="AI分析企业信息（天眼查接口）" style="whiteSpace=wrap;html=1;rounded=0;" vertex="1" parent="1">
          <mxGeometry x="190" y="330" width="120" height="60" as="geometry" />
        </mxCell>
        <mxCell id="TACAZottXMF5NRmoX5qq-8" value="根据企业信息排序适合岗位排名" style="whiteSpace=wrap;html=1;rounded=0;" vertex="1" parent="1">
          <mxGeometry x="380" y="560" width="120" height="60" as="geometry" />
        </mxCell>
        <mxCell id="TACAZottXMF5NRmoX5qq-20" style="edgeStyle=orthogonalEdgeStyle;rounded=0;orthogonalLoop=1;jettySize=auto;html=1;exitX=0.5;exitY=1;exitDx=0;exitDy=0;" edge="1" parent="1" source="TACAZottXMF5NRmoX5qq-10">
          <mxGeometry relative="1" as="geometry">
            <mxPoint x="440" y="560" as="targetPoint" />
          </mxGeometry>
        </mxCell>
        <mxCell id="TACAZottXMF5NRmoX5qq-10" value="上市信息、股权分析、经营时间、公司人数" style="shape=hexagon;perimeter=hexagonPerimeter2;whiteSpace=wrap;html=1;fixedSize=1;rounded=0;" vertex="1" parent="1">
          <mxGeometry x="180" y="410" width="120" height="80" as="geometry" />
        </mxCell>
        <mxCell id="TACAZottXMF5NRmoX5qq-16" value="" style="edgeStyle=orthogonalEdgeStyle;rounded=0;orthogonalLoop=1;jettySize=auto;html=1;" edge="1" parent="1" source="TACAZottXMF5NRmoX5qq-13" target="TACAZottXMF5NRmoX5qq-15">
          <mxGeometry relative="1" as="geometry" />
        </mxCell>
        <mxCell id="TACAZottXMF5NRmoX5qq-13" value="爬取页面详细信息" style="whiteSpace=wrap;html=1;rounded=0;" vertex="1" parent="1">
          <mxGeometry x="580" y="250" width="120" height="60" as="geometry" />
        </mxCell>
        <mxCell id="TACAZottXMF5NRmoX5qq-18" value="" style="edgeStyle=orthogonalEdgeStyle;rounded=0;orthogonalLoop=1;jettySize=auto;html=1;" edge="1" parent="1" source="TACAZottXMF5NRmoX5qq-15" target="TACAZottXMF5NRmoX5qq-17">
          <mxGeometry relative="1" as="geometry" />
        </mxCell>
        <mxCell id="TACAZottXMF5NRmoX5qq-15" value="AI分析福利待遇" style="whiteSpace=wrap;html=1;rounded=0;" vertex="1" parent="1">
          <mxGeometry x="580" y="330" width="120" height="60" as="geometry" />
        </mxCell>
        <mxCell id="TACAZottXMF5NRmoX5qq-19" style="edgeStyle=orthogonalEdgeStyle;rounded=0;orthogonalLoop=1;jettySize=auto;html=1;exitX=0.5;exitY=1;exitDx=0;exitDy=0;entryX=0.5;entryY=0;entryDx=0;entryDy=0;" edge="1" parent="1" source="TACAZottXMF5NRmoX5qq-17" target="TACAZottXMF5NRmoX5qq-8">
          <mxGeometry relative="1" as="geometry" />
        </mxCell>
        <mxCell id="TACAZottXMF5NRmoX5qq-17" value="boss评价、展示福利待遇、有无住房补贴、有无饭补、有无班车" style="shape=hexagon;perimeter=hexagonPerimeter2;whiteSpace=wrap;html=1;fixedSize=1;rounded=0;" vertex="1" parent="1">
          <mxGeometry x="580" y="410" width="120" height="80" as="geometry" />
        </mxCell>
      </root>
    </mxGraphModel>
  </diagram>
</mxfile>
